<mxfile host="app.diagrams.net" modified="2023-11-23T11:09:46.669Z" agent="Mozilla/5.0 (Windows NT 10.0; Win64; x64) AppleWebKit/537.36 (KHTML, like Gecko) Chrome/119.0.0.0 Safari/537.36" etag="ZIaS8V0dVUMT4AML9HJi" version="22.1.3" type="device">
  <diagram id="C5RBs43oDa-KdzZeNtuy" name="Page-1">
    <mxGraphModel dx="1120" dy="1647" grid="1" gridSize="10" guides="1" tooltips="1" connect="1" arrows="1" fold="1" page="1" pageScale="1" pageWidth="827" pageHeight="1169" math="0" shadow="0">
      <root>
        <mxCell id="WIyWlLk6GJQsqaUBKTNV-0" />
        <mxCell id="WIyWlLk6GJQsqaUBKTNV-1" parent="WIyWlLk6GJQsqaUBKTNV-0" />
        <mxCell id="3_G84Vbl57iLc2PhNEoy-0" style="edgeStyle=orthogonalEdgeStyle;rounded=0;orthogonalLoop=1;jettySize=auto;html=1;entryX=0.5;entryY=0;entryDx=0;entryDy=0;" edge="1" parent="WIyWlLk6GJQsqaUBKTNV-1" source="3_G84Vbl57iLc2PhNEoy-1" target="3_G84Vbl57iLc2PhNEoy-3">
          <mxGeometry relative="1" as="geometry">
            <mxPoint x="410" y="190" as="targetPoint" />
          </mxGeometry>
        </mxCell>
        <mxCell id="3_G84Vbl57iLc2PhNEoy-1" value="start" style="ellipse;whiteSpace=wrap;html=1;" vertex="1" parent="WIyWlLk6GJQsqaUBKTNV-1">
          <mxGeometry x="350" y="-30" width="120" height="80" as="geometry" />
        </mxCell>
        <mxCell id="3_G84Vbl57iLc2PhNEoy-2" style="edgeStyle=orthogonalEdgeStyle;rounded=0;orthogonalLoop=1;jettySize=auto;html=1;entryX=0.5;entryY=0;entryDx=0;entryDy=0;" edge="1" parent="WIyWlLk6GJQsqaUBKTNV-1" source="3_G84Vbl57iLc2PhNEoy-3" target="3_G84Vbl57iLc2PhNEoy-5">
          <mxGeometry relative="1" as="geometry">
            <mxPoint x="410" y="290" as="targetPoint" />
          </mxGeometry>
        </mxCell>
        <mxCell id="3_G84Vbl57iLc2PhNEoy-3" value="n,m" style="shape=parallelogram;perimeter=parallelogramPerimeter;whiteSpace=wrap;html=1;fixedSize=1;" vertex="1" parent="WIyWlLk6GJQsqaUBKTNV-1">
          <mxGeometry x="335" y="120" width="150" height="80" as="geometry" />
        </mxCell>
        <mxCell id="3_G84Vbl57iLc2PhNEoy-4" value="" style="edgeStyle=orthogonalEdgeStyle;rounded=0;orthogonalLoop=1;jettySize=auto;html=1;" edge="1" parent="WIyWlLk6GJQsqaUBKTNV-1" source="3_G84Vbl57iLc2PhNEoy-5" target="3_G84Vbl57iLc2PhNEoy-10">
          <mxGeometry relative="1" as="geometry" />
        </mxCell>
        <mxCell id="3_G84Vbl57iLc2PhNEoy-5" value="i=0,j=0" style="rounded=1;whiteSpace=wrap;html=1;" vertex="1" parent="WIyWlLk6GJQsqaUBKTNV-1">
          <mxGeometry x="350" y="260" width="120" height="60" as="geometry" />
        </mxCell>
        <mxCell id="3_G84Vbl57iLc2PhNEoy-6" value="" style="edgeStyle=orthogonalEdgeStyle;rounded=0;orthogonalLoop=1;jettySize=auto;html=1;" edge="1" parent="WIyWlLk6GJQsqaUBKTNV-1" source="3_G84Vbl57iLc2PhNEoy-10" target="3_G84Vbl57iLc2PhNEoy-15">
          <mxGeometry relative="1" as="geometry" />
        </mxCell>
        <mxCell id="3_G84Vbl57iLc2PhNEoy-7" value="true" style="edgeLabel;html=1;align=center;verticalAlign=middle;resizable=0;points=[];" vertex="1" connectable="0" parent="3_G84Vbl57iLc2PhNEoy-6">
          <mxGeometry x="-0.45" relative="1" as="geometry">
            <mxPoint as="offset" />
          </mxGeometry>
        </mxCell>
        <mxCell id="3_G84Vbl57iLc2PhNEoy-8" style="edgeStyle=orthogonalEdgeStyle;rounded=0;orthogonalLoop=1;jettySize=auto;html=1;" edge="1" parent="WIyWlLk6GJQsqaUBKTNV-1" source="3_G84Vbl57iLc2PhNEoy-10" target="3_G84Vbl57iLc2PhNEoy-23">
          <mxGeometry relative="1" as="geometry">
            <mxPoint x="129" y="1120" as="targetPoint" />
          </mxGeometry>
        </mxCell>
        <mxCell id="3_G84Vbl57iLc2PhNEoy-9" value="false" style="edgeLabel;html=1;align=center;verticalAlign=middle;resizable=0;points=[];" vertex="1" connectable="0" parent="3_G84Vbl57iLc2PhNEoy-8">
          <mxGeometry x="0.0629" relative="1" as="geometry">
            <mxPoint as="offset" />
          </mxGeometry>
        </mxCell>
        <mxCell id="3_G84Vbl57iLc2PhNEoy-10" value="i&amp;lt;n" style="rhombus;whiteSpace=wrap;html=1;rounded=1;" vertex="1" parent="WIyWlLk6GJQsqaUBKTNV-1">
          <mxGeometry x="370" y="390" width="80" height="80" as="geometry" />
        </mxCell>
        <mxCell id="3_G84Vbl57iLc2PhNEoy-11" value="" style="edgeStyle=orthogonalEdgeStyle;rounded=0;orthogonalLoop=1;jettySize=auto;html=1;" edge="1" parent="WIyWlLk6GJQsqaUBKTNV-1" source="3_G84Vbl57iLc2PhNEoy-15" target="3_G84Vbl57iLc2PhNEoy-17">
          <mxGeometry relative="1" as="geometry" />
        </mxCell>
        <mxCell id="3_G84Vbl57iLc2PhNEoy-12" value="true" style="edgeLabel;html=1;align=center;verticalAlign=middle;resizable=0;points=[];" vertex="1" connectable="0" parent="3_G84Vbl57iLc2PhNEoy-11">
          <mxGeometry x="-0.2889" y="3" relative="1" as="geometry">
            <mxPoint as="offset" />
          </mxGeometry>
        </mxCell>
        <mxCell id="3_G84Vbl57iLc2PhNEoy-13" value="" style="edgeStyle=orthogonalEdgeStyle;rounded=0;orthogonalLoop=1;jettySize=auto;html=1;" edge="1" parent="WIyWlLk6GJQsqaUBKTNV-1" source="3_G84Vbl57iLc2PhNEoy-15" target="3_G84Vbl57iLc2PhNEoy-21">
          <mxGeometry relative="1" as="geometry" />
        </mxCell>
        <mxCell id="3_G84Vbl57iLc2PhNEoy-14" value="false" style="edgeLabel;html=1;align=center;verticalAlign=middle;resizable=0;points=[];" vertex="1" connectable="0" parent="3_G84Vbl57iLc2PhNEoy-13">
          <mxGeometry x="-0.0333" y="-1" relative="1" as="geometry">
            <mxPoint as="offset" />
          </mxGeometry>
        </mxCell>
        <mxCell id="3_G84Vbl57iLc2PhNEoy-15" value="j&amp;lt;m" style="rhombus;whiteSpace=wrap;html=1;rounded=1;" vertex="1" parent="WIyWlLk6GJQsqaUBKTNV-1">
          <mxGeometry x="370" y="550" width="80" height="80" as="geometry" />
        </mxCell>
        <mxCell id="3_G84Vbl57iLc2PhNEoy-16" value="" style="edgeStyle=orthogonalEdgeStyle;rounded=0;orthogonalLoop=1;jettySize=auto;html=1;" edge="1" parent="WIyWlLk6GJQsqaUBKTNV-1" source="3_G84Vbl57iLc2PhNEoy-17" target="3_G84Vbl57iLc2PhNEoy-19">
          <mxGeometry relative="1" as="geometry" />
        </mxCell>
        <mxCell id="3_G84Vbl57iLc2PhNEoy-17" value="arr[i][j]" style="shape=parallelogram;perimeter=parallelogramPerimeter;whiteSpace=wrap;html=1;fixedSize=1;rounded=1;" vertex="1" parent="WIyWlLk6GJQsqaUBKTNV-1">
          <mxGeometry x="350" y="720" width="120" height="60" as="geometry" />
        </mxCell>
        <mxCell id="3_G84Vbl57iLc2PhNEoy-18" style="edgeStyle=orthogonalEdgeStyle;rounded=0;orthogonalLoop=1;jettySize=auto;html=1;entryX=0;entryY=0.5;entryDx=0;entryDy=0;" edge="1" parent="WIyWlLk6GJQsqaUBKTNV-1" source="3_G84Vbl57iLc2PhNEoy-19" target="3_G84Vbl57iLc2PhNEoy-15">
          <mxGeometry relative="1" as="geometry">
            <mxPoint x="250" y="600" as="targetPoint" />
            <Array as="points">
              <mxPoint x="251" y="890" />
              <mxPoint x="251" y="590" />
            </Array>
          </mxGeometry>
        </mxCell>
        <mxCell id="3_G84Vbl57iLc2PhNEoy-19" value="j++" style="rounded=1;whiteSpace=wrap;html=1;" vertex="1" parent="WIyWlLk6GJQsqaUBKTNV-1">
          <mxGeometry x="350" y="860" width="120" height="60" as="geometry" />
        </mxCell>
        <mxCell id="3_G84Vbl57iLc2PhNEoy-20" style="edgeStyle=orthogonalEdgeStyle;rounded=0;orthogonalLoop=1;jettySize=auto;html=1;entryX=1;entryY=0.5;entryDx=0;entryDy=0;" edge="1" parent="WIyWlLk6GJQsqaUBKTNV-1" source="3_G84Vbl57iLc2PhNEoy-21" target="3_G84Vbl57iLc2PhNEoy-10">
          <mxGeometry relative="1" as="geometry">
            <mxPoint x="570" y="380" as="targetPoint" />
            <Array as="points">
              <mxPoint x="570" y="430" />
            </Array>
          </mxGeometry>
        </mxCell>
        <mxCell id="3_G84Vbl57iLc2PhNEoy-21" value="i++" style="whiteSpace=wrap;html=1;rounded=1;" vertex="1" parent="WIyWlLk6GJQsqaUBKTNV-1">
          <mxGeometry x="510" y="560" width="120" height="60" as="geometry" />
        </mxCell>
        <mxCell id="3_G84Vbl57iLc2PhNEoy-22" value="" style="edgeStyle=orthogonalEdgeStyle;rounded=0;orthogonalLoop=1;jettySize=auto;html=1;" edge="1" parent="WIyWlLk6GJQsqaUBKTNV-1" source="3_G84Vbl57iLc2PhNEoy-23" target="3_G84Vbl57iLc2PhNEoy-25">
          <mxGeometry relative="1" as="geometry" />
        </mxCell>
        <mxCell id="3_G84Vbl57iLc2PhNEoy-23" value="IN MENU" style="rounded=1;whiteSpace=wrap;html=1;" vertex="1" parent="WIyWlLk6GJQsqaUBKTNV-1">
          <mxGeometry x="69" y="1090" width="120" height="60" as="geometry" />
        </mxCell>
        <mxCell id="3_G84Vbl57iLc2PhNEoy-24" value="" style="edgeStyle=orthogonalEdgeStyle;rounded=0;orthogonalLoop=1;jettySize=auto;html=1;" edge="1" parent="WIyWlLk6GJQsqaUBKTNV-1" source="3_G84Vbl57iLc2PhNEoy-25" target="3_G84Vbl57iLc2PhNEoy-30">
          <mxGeometry relative="1" as="geometry" />
        </mxCell>
        <mxCell id="3_G84Vbl57iLc2PhNEoy-25" value="choice" style="shape=parallelogram;perimeter=parallelogramPerimeter;whiteSpace=wrap;html=1;fixedSize=1;rounded=1;" vertex="1" parent="WIyWlLk6GJQsqaUBKTNV-1">
          <mxGeometry x="69" y="1230" width="120" height="60" as="geometry" />
        </mxCell>
        <mxCell id="3_G84Vbl57iLc2PhNEoy-26" style="edgeStyle=orthogonalEdgeStyle;rounded=0;orthogonalLoop=1;jettySize=auto;html=1;" edge="1" parent="WIyWlLk6GJQsqaUBKTNV-1" source="3_G84Vbl57iLc2PhNEoy-30" target="3_G84Vbl57iLc2PhNEoy-35">
          <mxGeometry relative="1" as="geometry">
            <Array as="points">
              <mxPoint x="210" y="1430" />
              <mxPoint x="210" y="1430" />
            </Array>
          </mxGeometry>
        </mxCell>
        <mxCell id="3_G84Vbl57iLc2PhNEoy-27" value="true" style="edgeLabel;html=1;align=center;verticalAlign=middle;resizable=0;points=[];" vertex="1" connectable="0" parent="3_G84Vbl57iLc2PhNEoy-26">
          <mxGeometry x="-0.1775" y="-4" relative="1" as="geometry">
            <mxPoint as="offset" />
          </mxGeometry>
        </mxCell>
        <mxCell id="3_G84Vbl57iLc2PhNEoy-28" value="" style="edgeStyle=orthogonalEdgeStyle;rounded=0;orthogonalLoop=1;jettySize=auto;html=1;" edge="1" parent="WIyWlLk6GJQsqaUBKTNV-1" source="3_G84Vbl57iLc2PhNEoy-30" target="3_G84Vbl57iLc2PhNEoy-50">
          <mxGeometry relative="1" as="geometry" />
        </mxCell>
        <mxCell id="3_G84Vbl57iLc2PhNEoy-29" value="falese" style="edgeLabel;html=1;align=center;verticalAlign=middle;resizable=0;points=[];" vertex="1" connectable="0" parent="3_G84Vbl57iLc2PhNEoy-28">
          <mxGeometry x="-0.0857" y="-5" relative="1" as="geometry">
            <mxPoint y="1" as="offset" />
          </mxGeometry>
        </mxCell>
        <mxCell id="3_G84Vbl57iLc2PhNEoy-30" value="choice==1" style="rhombus;whiteSpace=wrap;html=1;rounded=1;" vertex="1" parent="WIyWlLk6GJQsqaUBKTNV-1">
          <mxGeometry x="73.5" y="1375" width="111" height="110" as="geometry" />
        </mxCell>
        <mxCell id="3_G84Vbl57iLc2PhNEoy-31" value="" style="edgeStyle=orthogonalEdgeStyle;rounded=0;orthogonalLoop=1;jettySize=auto;html=1;" edge="1" parent="WIyWlLk6GJQsqaUBKTNV-1" source="3_G84Vbl57iLc2PhNEoy-35" target="3_G84Vbl57iLc2PhNEoy-39">
          <mxGeometry relative="1" as="geometry" />
        </mxCell>
        <mxCell id="3_G84Vbl57iLc2PhNEoy-32" value="true" style="edgeLabel;html=1;align=center;verticalAlign=middle;resizable=0;points=[];" vertex="1" connectable="0" parent="3_G84Vbl57iLc2PhNEoy-31">
          <mxGeometry x="-0.45" relative="1" as="geometry">
            <mxPoint as="offset" />
          </mxGeometry>
        </mxCell>
        <mxCell id="3_G84Vbl57iLc2PhNEoy-33" style="edgeStyle=orthogonalEdgeStyle;rounded=0;orthogonalLoop=1;jettySize=auto;html=1;" edge="1" parent="WIyWlLk6GJQsqaUBKTNV-1" source="3_G84Vbl57iLc2PhNEoy-35">
          <mxGeometry relative="1" as="geometry">
            <mxPoint x="130" y="980" as="targetPoint" />
            <Array as="points">
              <mxPoint x="289" y="1620" />
              <mxPoint x="1190" y="1620" />
              <mxPoint x="1190" y="980" />
              <mxPoint x="130" y="980" />
            </Array>
          </mxGeometry>
        </mxCell>
        <mxCell id="3_G84Vbl57iLc2PhNEoy-34" value="false" style="edgeLabel;html=1;align=center;verticalAlign=middle;resizable=0;points=[];" vertex="1" connectable="0" parent="3_G84Vbl57iLc2PhNEoy-33">
          <mxGeometry x="-0.6391" y="-6" relative="1" as="geometry">
            <mxPoint as="offset" />
          </mxGeometry>
        </mxCell>
        <mxCell id="3_G84Vbl57iLc2PhNEoy-35" value="i&amp;lt;n" style="rhombus;whiteSpace=wrap;html=1;rounded=1;" vertex="1" parent="WIyWlLk6GJQsqaUBKTNV-1">
          <mxGeometry x="248.94" y="1390" width="80" height="80" as="geometry" />
        </mxCell>
        <mxCell id="3_G84Vbl57iLc2PhNEoy-36" value="" style="edgeStyle=orthogonalEdgeStyle;rounded=0;orthogonalLoop=1;jettySize=auto;html=1;" edge="1" parent="WIyWlLk6GJQsqaUBKTNV-1" source="3_G84Vbl57iLc2PhNEoy-39" target="3_G84Vbl57iLc2PhNEoy-41">
          <mxGeometry relative="1" as="geometry" />
        </mxCell>
        <mxCell id="3_G84Vbl57iLc2PhNEoy-37" value="true" style="edgeLabel;html=1;align=center;verticalAlign=middle;resizable=0;points=[];" vertex="1" connectable="0" parent="3_G84Vbl57iLc2PhNEoy-36">
          <mxGeometry x="-0.2889" y="3" relative="1" as="geometry">
            <mxPoint as="offset" />
          </mxGeometry>
        </mxCell>
        <mxCell id="3_G84Vbl57iLc2PhNEoy-38" value="false" style="edgeStyle=orthogonalEdgeStyle;rounded=0;orthogonalLoop=1;jettySize=auto;html=1;entryX=1;entryY=0.5;entryDx=0;entryDy=0;" edge="1" parent="WIyWlLk6GJQsqaUBKTNV-1" source="3_G84Vbl57iLc2PhNEoy-39" target="3_G84Vbl57iLc2PhNEoy-45">
          <mxGeometry relative="1" as="geometry">
            <Array as="points">
              <mxPoint x="490" y="1310" />
              <mxPoint x="369" y="1310" />
            </Array>
          </mxGeometry>
        </mxCell>
        <mxCell id="3_G84Vbl57iLc2PhNEoy-39" value="j&amp;lt;m" style="rhombus;whiteSpace=wrap;html=1;rounded=1;" vertex="1" parent="WIyWlLk6GJQsqaUBKTNV-1">
          <mxGeometry x="450" y="1390" width="80" height="80" as="geometry" />
        </mxCell>
        <mxCell id="3_G84Vbl57iLc2PhNEoy-40" value="" style="edgeStyle=orthogonalEdgeStyle;rounded=0;orthogonalLoop=1;jettySize=auto;html=1;" edge="1" parent="WIyWlLk6GJQsqaUBKTNV-1" source="3_G84Vbl57iLc2PhNEoy-41" target="3_G84Vbl57iLc2PhNEoy-43">
          <mxGeometry relative="1" as="geometry" />
        </mxCell>
        <mxCell id="3_G84Vbl57iLc2PhNEoy-41" value="arr[i][j]" style="shape=parallelogram;perimeter=parallelogramPerimeter;whiteSpace=wrap;html=1;fixedSize=1;rounded=1;" vertex="1" parent="WIyWlLk6GJQsqaUBKTNV-1">
          <mxGeometry x="630" y="1400" width="120" height="60" as="geometry" />
        </mxCell>
        <mxCell id="3_G84Vbl57iLc2PhNEoy-42" style="edgeStyle=orthogonalEdgeStyle;rounded=0;orthogonalLoop=1;jettySize=auto;html=1;entryX=0.5;entryY=1;entryDx=0;entryDy=0;" edge="1" parent="WIyWlLk6GJQsqaUBKTNV-1" source="3_G84Vbl57iLc2PhNEoy-43" target="3_G84Vbl57iLc2PhNEoy-39">
          <mxGeometry relative="1" as="geometry">
            <mxPoint x="490" y="1500" as="targetPoint" />
            <Array as="points">
              <mxPoint x="940" y="1520" />
              <mxPoint x="490" y="1520" />
            </Array>
          </mxGeometry>
        </mxCell>
        <mxCell id="3_G84Vbl57iLc2PhNEoy-43" value="j++" style="rounded=1;whiteSpace=wrap;html=1;" vertex="1" parent="WIyWlLk6GJQsqaUBKTNV-1">
          <mxGeometry x="880" y="1400" width="120" height="60" as="geometry" />
        </mxCell>
        <mxCell id="3_G84Vbl57iLc2PhNEoy-44" style="edgeStyle=orthogonalEdgeStyle;rounded=0;orthogonalLoop=1;jettySize=auto;html=1;entryX=0.5;entryY=0;entryDx=0;entryDy=0;" edge="1" parent="WIyWlLk6GJQsqaUBKTNV-1" source="3_G84Vbl57iLc2PhNEoy-45" target="3_G84Vbl57iLc2PhNEoy-35">
          <mxGeometry relative="1" as="geometry">
            <mxPoint x="289" y="1360" as="targetPoint" />
            <Array as="points">
              <mxPoint x="289" y="1290" />
              <mxPoint x="290" y="1330" />
              <mxPoint x="289" y="1330" />
            </Array>
          </mxGeometry>
        </mxCell>
        <mxCell id="3_G84Vbl57iLc2PhNEoy-45" value="i++" style="whiteSpace=wrap;html=1;rounded=1;" vertex="1" parent="WIyWlLk6GJQsqaUBKTNV-1">
          <mxGeometry x="248.94" y="1290" width="120" height="60" as="geometry" />
        </mxCell>
        <mxCell id="3_G84Vbl57iLc2PhNEoy-46" style="edgeStyle=orthogonalEdgeStyle;rounded=0;orthogonalLoop=1;jettySize=auto;html=1;entryX=0;entryY=0.5;entryDx=0;entryDy=0;" edge="1" parent="WIyWlLk6GJQsqaUBKTNV-1" source="3_G84Vbl57iLc2PhNEoy-50" target="3_G84Vbl57iLc2PhNEoy-55">
          <mxGeometry relative="1" as="geometry" />
        </mxCell>
        <mxCell id="3_G84Vbl57iLc2PhNEoy-47" value="true" style="edgeLabel;html=1;align=center;verticalAlign=middle;resizable=0;points=[];" vertex="1" connectable="0" parent="3_G84Vbl57iLc2PhNEoy-46">
          <mxGeometry x="-0.1341" y="2" relative="1" as="geometry">
            <mxPoint as="offset" />
          </mxGeometry>
        </mxCell>
        <mxCell id="3_G84Vbl57iLc2PhNEoy-48" value="" style="edgeStyle=orthogonalEdgeStyle;rounded=0;orthogonalLoop=1;jettySize=auto;html=1;" edge="1" parent="WIyWlLk6GJQsqaUBKTNV-1" source="3_G84Vbl57iLc2PhNEoy-50" target="3_G84Vbl57iLc2PhNEoy-102">
          <mxGeometry relative="1" as="geometry" />
        </mxCell>
        <mxCell id="3_G84Vbl57iLc2PhNEoy-49" value="false" style="edgeLabel;html=1;align=center;verticalAlign=middle;resizable=0;points=[];" vertex="1" connectable="0" parent="3_G84Vbl57iLc2PhNEoy-48">
          <mxGeometry x="0.0226" relative="1" as="geometry">
            <mxPoint y="1" as="offset" />
          </mxGeometry>
        </mxCell>
        <mxCell id="3_G84Vbl57iLc2PhNEoy-50" value="choice==2" style="rhombus;whiteSpace=wrap;html=1;rounded=1;" vertex="1" parent="WIyWlLk6GJQsqaUBKTNV-1">
          <mxGeometry x="73.5" y="1870" width="111" height="110" as="geometry" />
        </mxCell>
        <mxCell id="3_G84Vbl57iLc2PhNEoy-51" value="" style="edgeStyle=orthogonalEdgeStyle;rounded=0;orthogonalLoop=1;jettySize=auto;html=1;" edge="1" parent="WIyWlLk6GJQsqaUBKTNV-1" source="3_G84Vbl57iLc2PhNEoy-55" target="3_G84Vbl57iLc2PhNEoy-59">
          <mxGeometry relative="1" as="geometry" />
        </mxCell>
        <mxCell id="3_G84Vbl57iLc2PhNEoy-52" value="true" style="edgeLabel;html=1;align=center;verticalAlign=middle;resizable=0;points=[];" vertex="1" connectable="0" parent="3_G84Vbl57iLc2PhNEoy-51">
          <mxGeometry x="-0.45" relative="1" as="geometry">
            <mxPoint as="offset" />
          </mxGeometry>
        </mxCell>
        <mxCell id="3_G84Vbl57iLc2PhNEoy-53" style="edgeStyle=orthogonalEdgeStyle;rounded=0;orthogonalLoop=1;jettySize=auto;html=1;" edge="1" parent="WIyWlLk6GJQsqaUBKTNV-1" source="3_G84Vbl57iLc2PhNEoy-55">
          <mxGeometry relative="1" as="geometry">
            <mxPoint x="1190" y="980" as="targetPoint" />
            <Array as="points">
              <mxPoint x="351" y="2290" />
              <mxPoint x="2140" y="2290" />
              <mxPoint x="2140" y="980" />
            </Array>
          </mxGeometry>
        </mxCell>
        <mxCell id="3_G84Vbl57iLc2PhNEoy-54" value="false" style="edgeLabel;html=1;align=center;verticalAlign=middle;resizable=0;points=[];" vertex="1" connectable="0" parent="3_G84Vbl57iLc2PhNEoy-53">
          <mxGeometry x="-0.5512" y="-9" relative="1" as="geometry">
            <mxPoint as="offset" />
          </mxGeometry>
        </mxCell>
        <mxCell id="3_G84Vbl57iLc2PhNEoy-55" value="i&amp;lt;n" style="rhombus;whiteSpace=wrap;html=1;rounded=1;" vertex="1" parent="WIyWlLk6GJQsqaUBKTNV-1">
          <mxGeometry x="310" y="1880" width="80" height="80" as="geometry" />
        </mxCell>
        <mxCell id="3_G84Vbl57iLc2PhNEoy-56" value="" style="edgeStyle=orthogonalEdgeStyle;rounded=0;orthogonalLoop=1;jettySize=auto;html=1;entryX=0;entryY=0.5;entryDx=0;entryDy=0;" edge="1" parent="WIyWlLk6GJQsqaUBKTNV-1" source="3_G84Vbl57iLc2PhNEoy-59" target="3_G84Vbl57iLc2PhNEoy-65">
          <mxGeometry relative="1" as="geometry">
            <mxPoint x="700" y="1920" as="targetPoint" />
          </mxGeometry>
        </mxCell>
        <mxCell id="3_G84Vbl57iLc2PhNEoy-57" value="true" style="edgeLabel;html=1;align=center;verticalAlign=middle;resizable=0;points=[];" vertex="1" connectable="0" parent="3_G84Vbl57iLc2PhNEoy-56">
          <mxGeometry x="-0.2889" y="3" relative="1" as="geometry">
            <mxPoint as="offset" />
          </mxGeometry>
        </mxCell>
        <mxCell id="3_G84Vbl57iLc2PhNEoy-58" value="false" style="edgeStyle=orthogonalEdgeStyle;rounded=0;orthogonalLoop=1;jettySize=auto;html=1;entryX=1;entryY=0.5;entryDx=0;entryDy=0;" edge="1" parent="WIyWlLk6GJQsqaUBKTNV-1" source="3_G84Vbl57iLc2PhNEoy-59" target="3_G84Vbl57iLc2PhNEoy-63">
          <mxGeometry relative="1" as="geometry">
            <Array as="points">
              <mxPoint x="551.06" y="1800" />
              <mxPoint x="430.06" y="1800" />
            </Array>
          </mxGeometry>
        </mxCell>
        <mxCell id="3_G84Vbl57iLc2PhNEoy-59" value="j&amp;lt;m" style="rhombus;whiteSpace=wrap;html=1;rounded=1;" vertex="1" parent="WIyWlLk6GJQsqaUBKTNV-1">
          <mxGeometry x="511.06" y="1880" width="80" height="80" as="geometry" />
        </mxCell>
        <mxCell id="3_G84Vbl57iLc2PhNEoy-60" style="edgeStyle=orthogonalEdgeStyle;rounded=0;orthogonalLoop=1;jettySize=auto;html=1;" edge="1" parent="WIyWlLk6GJQsqaUBKTNV-1" source="3_G84Vbl57iLc2PhNEoy-61">
          <mxGeometry relative="1" as="geometry">
            <mxPoint x="480" y="1920" as="targetPoint" />
            <Array as="points">
              <mxPoint x="1620" y="2160" />
              <mxPoint x="480" y="2160" />
            </Array>
          </mxGeometry>
        </mxCell>
        <mxCell id="3_G84Vbl57iLc2PhNEoy-61" value="j++" style="rounded=1;whiteSpace=wrap;html=1;" vertex="1" parent="WIyWlLk6GJQsqaUBKTNV-1">
          <mxGeometry x="1520" y="1890" width="120" height="60" as="geometry" />
        </mxCell>
        <mxCell id="3_G84Vbl57iLc2PhNEoy-62" style="edgeStyle=orthogonalEdgeStyle;rounded=0;orthogonalLoop=1;jettySize=auto;html=1;entryX=0.5;entryY=0;entryDx=0;entryDy=0;" edge="1" parent="WIyWlLk6GJQsqaUBKTNV-1" source="3_G84Vbl57iLc2PhNEoy-63" target="3_G84Vbl57iLc2PhNEoy-55">
          <mxGeometry relative="1" as="geometry">
            <mxPoint x="350.06" y="1850" as="targetPoint" />
            <Array as="points">
              <mxPoint x="350.06" y="1780" />
              <mxPoint x="351.06" y="1820" />
              <mxPoint x="350.06" y="1820" />
            </Array>
          </mxGeometry>
        </mxCell>
        <mxCell id="3_G84Vbl57iLc2PhNEoy-63" value="i++" style="whiteSpace=wrap;html=1;rounded=1;" vertex="1" parent="WIyWlLk6GJQsqaUBKTNV-1">
          <mxGeometry x="310" y="1780" width="120" height="60" as="geometry" />
        </mxCell>
        <mxCell id="3_G84Vbl57iLc2PhNEoy-64" value="" style="edgeStyle=orthogonalEdgeStyle;rounded=0;orthogonalLoop=1;jettySize=auto;html=1;entryX=0;entryY=0.5;entryDx=0;entryDy=0;" edge="1" parent="WIyWlLk6GJQsqaUBKTNV-1" source="3_G84Vbl57iLc2PhNEoy-65" target="3_G84Vbl57iLc2PhNEoy-112">
          <mxGeometry relative="1" as="geometry">
            <mxPoint x="870" y="1920" as="targetPoint" />
          </mxGeometry>
        </mxCell>
        <mxCell id="3_G84Vbl57iLc2PhNEoy-65" value="arr[i][j]&lt;br&gt;k=i-1" style="shape=parallelogram;perimeter=parallelogramPerimeter;whiteSpace=wrap;html=1;fixedSize=1;" vertex="1" parent="WIyWlLk6GJQsqaUBKTNV-1">
          <mxGeometry x="690" y="1890" width="120" height="60" as="geometry" />
        </mxCell>
        <mxCell id="3_G84Vbl57iLc2PhNEoy-66" value="" style="edgeStyle=orthogonalEdgeStyle;rounded=0;orthogonalLoop=1;jettySize=auto;html=1;exitX=0.5;exitY=1;exitDx=0;exitDy=0;entryX=0.55;entryY=-0.1;entryDx=0;entryDy=0;entryPerimeter=0;" edge="1" parent="WIyWlLk6GJQsqaUBKTNV-1" source="3_G84Vbl57iLc2PhNEoy-112" target="3_G84Vbl57iLc2PhNEoy-111">
          <mxGeometry relative="1" as="geometry">
            <mxPoint x="960" y="1990" as="sourcePoint" />
            <mxPoint x="1090" y="2020" as="targetPoint" />
            <Array as="points">
              <mxPoint x="965" y="2010" />
              <mxPoint x="966" y="2010" />
            </Array>
          </mxGeometry>
        </mxCell>
        <mxCell id="3_G84Vbl57iLc2PhNEoy-67" value="true" style="edgeLabel;html=1;align=center;verticalAlign=middle;resizable=0;points=[];" vertex="1" connectable="0" parent="3_G84Vbl57iLc2PhNEoy-66">
          <mxGeometry x="-0.2099" y="6" relative="1" as="geometry">
            <mxPoint as="offset" />
          </mxGeometry>
        </mxCell>
        <mxCell id="3_G84Vbl57iLc2PhNEoy-68" value="" style="edgeStyle=orthogonalEdgeStyle;rounded=0;orthogonalLoop=1;jettySize=auto;html=1;exitX=1;exitY=0.5;exitDx=0;exitDy=0;entryX=0;entryY=0.5;entryDx=0;entryDy=0;" edge="1" parent="WIyWlLk6GJQsqaUBKTNV-1" source="3_G84Vbl57iLc2PhNEoy-112" target="3_G84Vbl57iLc2PhNEoy-113">
          <mxGeometry relative="1" as="geometry">
            <mxPoint x="1050" y="1920" as="sourcePoint" />
            <mxPoint x="1160" y="1920" as="targetPoint" />
          </mxGeometry>
        </mxCell>
        <mxCell id="3_G84Vbl57iLc2PhNEoy-69" value="false" style="edgeLabel;html=1;align=center;verticalAlign=middle;resizable=0;points=[];" vertex="1" connectable="0" parent="3_G84Vbl57iLc2PhNEoy-68">
          <mxGeometry x="-0.2061" y="1" relative="1" as="geometry">
            <mxPoint as="offset" />
          </mxGeometry>
        </mxCell>
        <mxCell id="3_G84Vbl57iLc2PhNEoy-71" style="edgeStyle=orthogonalEdgeStyle;rounded=0;orthogonalLoop=1;jettySize=auto;html=1;exitX=0;exitY=0.5;exitDx=0;exitDy=0;" edge="1" parent="WIyWlLk6GJQsqaUBKTNV-1" source="3_G84Vbl57iLc2PhNEoy-111">
          <mxGeometry relative="1" as="geometry">
            <mxPoint x="830" y="1920" as="targetPoint" />
            <mxPoint x="850" y="2100" as="sourcePoint" />
          </mxGeometry>
        </mxCell>
        <mxCell id="3_G84Vbl57iLc2PhNEoy-73" style="edgeStyle=orthogonalEdgeStyle;rounded=0;orthogonalLoop=1;jettySize=auto;html=1;entryX=0;entryY=0.5;entryDx=0;entryDy=0;exitX=1;exitY=0.5;exitDx=0;exitDy=0;" edge="1" parent="WIyWlLk6GJQsqaUBKTNV-1" source="3_G84Vbl57iLc2PhNEoy-113" target="3_G84Vbl57iLc2PhNEoy-61">
          <mxGeometry relative="1" as="geometry">
            <mxPoint x="1350" y="1920" as="sourcePoint" />
          </mxGeometry>
        </mxCell>
        <mxCell id="3_G84Vbl57iLc2PhNEoy-75" value="" style="edgeStyle=orthogonalEdgeStyle;rounded=0;orthogonalLoop=1;jettySize=auto;html=1;" edge="1" parent="WIyWlLk6GJQsqaUBKTNV-1" source="3_G84Vbl57iLc2PhNEoy-79" target="3_G84Vbl57iLc2PhNEoy-83">
          <mxGeometry relative="1" as="geometry" />
        </mxCell>
        <mxCell id="3_G84Vbl57iLc2PhNEoy-76" value="true" style="edgeLabel;html=1;align=center;verticalAlign=middle;resizable=0;points=[];" vertex="1" connectable="0" parent="3_G84Vbl57iLc2PhNEoy-75">
          <mxGeometry x="-0.45" relative="1" as="geometry">
            <mxPoint as="offset" />
          </mxGeometry>
        </mxCell>
        <mxCell id="3_G84Vbl57iLc2PhNEoy-77" style="edgeStyle=orthogonalEdgeStyle;rounded=0;orthogonalLoop=1;jettySize=auto;html=1;" edge="1" parent="WIyWlLk6GJQsqaUBKTNV-1" source="3_G84Vbl57iLc2PhNEoy-79">
          <mxGeometry relative="1" as="geometry">
            <mxPoint x="2140" y="2142.5" as="targetPoint" />
            <Array as="points">
              <mxPoint x="361" y="2960" />
              <mxPoint x="2140" y="2960" />
            </Array>
          </mxGeometry>
        </mxCell>
        <mxCell id="3_G84Vbl57iLc2PhNEoy-78" value="false" style="edgeLabel;html=1;align=center;verticalAlign=middle;resizable=0;points=[];" vertex="1" connectable="0" parent="3_G84Vbl57iLc2PhNEoy-77">
          <mxGeometry x="-0.8626" y="-1" relative="1" as="geometry">
            <mxPoint x="-1" y="-1" as="offset" />
          </mxGeometry>
        </mxCell>
        <mxCell id="3_G84Vbl57iLc2PhNEoy-79" value="i&amp;lt;n" style="rhombus;whiteSpace=wrap;html=1;rounded=1;" vertex="1" parent="WIyWlLk6GJQsqaUBKTNV-1">
          <mxGeometry x="320" y="2500" width="80" height="80" as="geometry" />
        </mxCell>
        <mxCell id="3_G84Vbl57iLc2PhNEoy-80" value="" style="edgeStyle=orthogonalEdgeStyle;rounded=0;orthogonalLoop=1;jettySize=auto;html=1;entryX=0;entryY=0.5;entryDx=0;entryDy=0;" edge="1" parent="WIyWlLk6GJQsqaUBKTNV-1" source="3_G84Vbl57iLc2PhNEoy-83" target="3_G84Vbl57iLc2PhNEoy-89">
          <mxGeometry relative="1" as="geometry">
            <mxPoint x="710" y="2540" as="targetPoint" />
          </mxGeometry>
        </mxCell>
        <mxCell id="3_G84Vbl57iLc2PhNEoy-81" value="true" style="edgeLabel;html=1;align=center;verticalAlign=middle;resizable=0;points=[];" vertex="1" connectable="0" parent="3_G84Vbl57iLc2PhNEoy-80">
          <mxGeometry x="-0.2889" y="3" relative="1" as="geometry">
            <mxPoint as="offset" />
          </mxGeometry>
        </mxCell>
        <mxCell id="3_G84Vbl57iLc2PhNEoy-82" value="false" style="edgeStyle=orthogonalEdgeStyle;rounded=0;orthogonalLoop=1;jettySize=auto;html=1;" edge="1" parent="WIyWlLk6GJQsqaUBKTNV-1" source="3_G84Vbl57iLc2PhNEoy-83">
          <mxGeometry relative="1" as="geometry">
            <Array as="points">
              <mxPoint x="561" y="2410" />
              <mxPoint x="440" y="2410" />
            </Array>
            <mxPoint x="440" y="2410" as="targetPoint" />
          </mxGeometry>
        </mxCell>
        <mxCell id="3_G84Vbl57iLc2PhNEoy-83" value="j&amp;lt;m" style="rhombus;whiteSpace=wrap;html=1;rounded=1;" vertex="1" parent="WIyWlLk6GJQsqaUBKTNV-1">
          <mxGeometry x="521.06" y="2500" width="80" height="80" as="geometry" />
        </mxCell>
        <mxCell id="3_G84Vbl57iLc2PhNEoy-84" style="edgeStyle=orthogonalEdgeStyle;rounded=0;orthogonalLoop=1;jettySize=auto;html=1;entryX=0.417;entryY=0.963;entryDx=0;entryDy=0;entryPerimeter=0;" edge="1" parent="WIyWlLk6GJQsqaUBKTNV-1" source="3_G84Vbl57iLc2PhNEoy-85" target="3_G84Vbl57iLc2PhNEoy-83">
          <mxGeometry relative="1" as="geometry">
            <mxPoint x="650" y="2840" as="targetPoint" />
            <Array as="points">
              <mxPoint x="1630" y="2780" />
              <mxPoint x="554" y="2780" />
            </Array>
          </mxGeometry>
        </mxCell>
        <mxCell id="3_G84Vbl57iLc2PhNEoy-85" value="j++" style="rounded=1;whiteSpace=wrap;html=1;" vertex="1" parent="WIyWlLk6GJQsqaUBKTNV-1">
          <mxGeometry x="1530" y="2510" width="120" height="60" as="geometry" />
        </mxCell>
        <mxCell id="3_G84Vbl57iLc2PhNEoy-86" style="edgeStyle=orthogonalEdgeStyle;rounded=0;orthogonalLoop=1;jettySize=auto;html=1;entryX=0.5;entryY=0;entryDx=0;entryDy=0;" edge="1" parent="WIyWlLk6GJQsqaUBKTNV-1" source="3_G84Vbl57iLc2PhNEoy-87" target="3_G84Vbl57iLc2PhNEoy-79">
          <mxGeometry relative="1" as="geometry">
            <mxPoint x="360.06" y="2470" as="targetPoint" />
            <Array as="points">
              <mxPoint x="360.06" y="2400" />
              <mxPoint x="361.06" y="2440" />
              <mxPoint x="360.06" y="2440" />
            </Array>
          </mxGeometry>
        </mxCell>
        <mxCell id="3_G84Vbl57iLc2PhNEoy-87" value="i++" style="whiteSpace=wrap;html=1;rounded=1;" vertex="1" parent="WIyWlLk6GJQsqaUBKTNV-1">
          <mxGeometry x="320" y="2400" width="120" height="60" as="geometry" />
        </mxCell>
        <mxCell id="3_G84Vbl57iLc2PhNEoy-88" value="" style="edgeStyle=orthogonalEdgeStyle;rounded=0;orthogonalLoop=1;jettySize=auto;html=1;entryX=0;entryY=0.5;entryDx=0;entryDy=0;" edge="1" parent="WIyWlLk6GJQsqaUBKTNV-1" source="3_G84Vbl57iLc2PhNEoy-89" target="3_G84Vbl57iLc2PhNEoy-115">
          <mxGeometry relative="1" as="geometry">
            <mxPoint x="880" y="2540" as="targetPoint" />
          </mxGeometry>
        </mxCell>
        <mxCell id="3_G84Vbl57iLc2PhNEoy-89" value="arr[k][i]&lt;br&gt;k=i-1" style="shape=parallelogram;perimeter=parallelogramPerimeter;whiteSpace=wrap;html=1;fixedSize=1;" vertex="1" parent="WIyWlLk6GJQsqaUBKTNV-1">
          <mxGeometry x="700" y="2510" width="120" height="60" as="geometry" />
        </mxCell>
        <mxCell id="3_G84Vbl57iLc2PhNEoy-90" value="" style="edgeStyle=orthogonalEdgeStyle;rounded=0;orthogonalLoop=1;jettySize=auto;html=1;exitX=0.5;exitY=1;exitDx=0;exitDy=0;" edge="1" parent="WIyWlLk6GJQsqaUBKTNV-1" source="3_G84Vbl57iLc2PhNEoy-115" target="3_G84Vbl57iLc2PhNEoy-109">
          <mxGeometry relative="1" as="geometry">
            <mxPoint x="970" y="2610" as="sourcePoint" />
            <mxPoint x="970" y="2690" as="targetPoint" />
          </mxGeometry>
        </mxCell>
        <mxCell id="3_G84Vbl57iLc2PhNEoy-91" value="true" style="edgeLabel;html=1;align=center;verticalAlign=middle;resizable=0;points=[];" vertex="1" connectable="0" parent="3_G84Vbl57iLc2PhNEoy-90">
          <mxGeometry x="-0.2099" y="6" relative="1" as="geometry">
            <mxPoint as="offset" />
          </mxGeometry>
        </mxCell>
        <mxCell id="3_G84Vbl57iLc2PhNEoy-92" value="" style="edgeStyle=orthogonalEdgeStyle;rounded=0;orthogonalLoop=1;jettySize=auto;html=1;exitX=1;exitY=0.5;exitDx=0;exitDy=0;" edge="1" parent="WIyWlLk6GJQsqaUBKTNV-1" source="3_G84Vbl57iLc2PhNEoy-115" target="3_G84Vbl57iLc2PhNEoy-114">
          <mxGeometry relative="1" as="geometry">
            <mxPoint x="1060" y="2540" as="sourcePoint" />
            <mxPoint x="1170" y="2540" as="targetPoint" />
          </mxGeometry>
        </mxCell>
        <mxCell id="3_G84Vbl57iLc2PhNEoy-93" value="false" style="edgeLabel;html=1;align=center;verticalAlign=middle;resizable=0;points=[];" vertex="1" connectable="0" parent="3_G84Vbl57iLc2PhNEoy-92">
          <mxGeometry x="-0.2061" y="1" relative="1" as="geometry">
            <mxPoint as="offset" />
          </mxGeometry>
        </mxCell>
        <mxCell id="3_G84Vbl57iLc2PhNEoy-95" style="edgeStyle=orthogonalEdgeStyle;rounded=0;orthogonalLoop=1;jettySize=auto;html=1;" edge="1" parent="WIyWlLk6GJQsqaUBKTNV-1" source="3_G84Vbl57iLc2PhNEoy-109">
          <mxGeometry relative="1" as="geometry">
            <mxPoint x="840" y="2540" as="targetPoint" />
            <mxPoint x="860" y="2720" as="sourcePoint" />
          </mxGeometry>
        </mxCell>
        <mxCell id="3_G84Vbl57iLc2PhNEoy-97" style="edgeStyle=orthogonalEdgeStyle;rounded=0;orthogonalLoop=1;jettySize=auto;html=1;entryX=0;entryY=0.5;entryDx=0;entryDy=0;exitX=1;exitY=0.5;exitDx=0;exitDy=0;" edge="1" parent="WIyWlLk6GJQsqaUBKTNV-1" source="3_G84Vbl57iLc2PhNEoy-114" target="3_G84Vbl57iLc2PhNEoy-85">
          <mxGeometry relative="1" as="geometry">
            <mxPoint x="1360" y="2540" as="sourcePoint" />
          </mxGeometry>
        </mxCell>
        <mxCell id="3_G84Vbl57iLc2PhNEoy-99" style="edgeStyle=orthogonalEdgeStyle;rounded=0;orthogonalLoop=1;jettySize=auto;html=1;" edge="1" parent="WIyWlLk6GJQsqaUBKTNV-1" source="3_G84Vbl57iLc2PhNEoy-102" target="3_G84Vbl57iLc2PhNEoy-79">
          <mxGeometry relative="1" as="geometry" />
        </mxCell>
        <mxCell id="3_G84Vbl57iLc2PhNEoy-100" value="true" style="edgeLabel;html=1;align=center;verticalAlign=middle;resizable=0;points=[];" vertex="1" connectable="0" parent="3_G84Vbl57iLc2PhNEoy-99">
          <mxGeometry x="-0.0481" y="3" relative="1" as="geometry">
            <mxPoint as="offset" />
          </mxGeometry>
        </mxCell>
        <mxCell id="3_G84Vbl57iLc2PhNEoy-101" value="" style="edgeStyle=orthogonalEdgeStyle;rounded=0;orthogonalLoop=1;jettySize=auto;html=1;" edge="1" parent="WIyWlLk6GJQsqaUBKTNV-1" source="3_G84Vbl57iLc2PhNEoy-102" target="3_G84Vbl57iLc2PhNEoy-105">
          <mxGeometry relative="1" as="geometry" />
        </mxCell>
        <mxCell id="3_G84Vbl57iLc2PhNEoy-102" value="choice==3" style="rhombus;whiteSpace=wrap;html=1;rounded=1;" vertex="1" parent="WIyWlLk6GJQsqaUBKTNV-1">
          <mxGeometry x="73.5" y="2510" width="111" height="110" as="geometry" />
        </mxCell>
        <mxCell id="3_G84Vbl57iLc2PhNEoy-103" value="" style="edgeStyle=orthogonalEdgeStyle;rounded=0;orthogonalLoop=1;jettySize=auto;html=1;" edge="1" parent="WIyWlLk6GJQsqaUBKTNV-1" source="3_G84Vbl57iLc2PhNEoy-105" target="3_G84Vbl57iLc2PhNEoy-106">
          <mxGeometry relative="1" as="geometry" />
        </mxCell>
        <mxCell id="3_G84Vbl57iLc2PhNEoy-104" value="" style="edgeStyle=orthogonalEdgeStyle;rounded=0;orthogonalLoop=1;jettySize=auto;html=1;" edge="1" parent="WIyWlLk6GJQsqaUBKTNV-1" source="3_G84Vbl57iLc2PhNEoy-105" target="3_G84Vbl57iLc2PhNEoy-108">
          <mxGeometry relative="1" as="geometry">
            <mxPoint x="129" y="3160" as="targetPoint" />
          </mxGeometry>
        </mxCell>
        <mxCell id="3_G84Vbl57iLc2PhNEoy-105" value="choice==4" style="rhombus;whiteSpace=wrap;html=1;rounded=1;" vertex="1" parent="WIyWlLk6GJQsqaUBKTNV-1">
          <mxGeometry x="73.5" y="2970" width="111" height="110" as="geometry" />
        </mxCell>
        <mxCell id="3_G84Vbl57iLc2PhNEoy-106" value="end" style="ellipse;whiteSpace=wrap;html=1;rounded=1;" vertex="1" parent="WIyWlLk6GJQsqaUBKTNV-1">
          <mxGeometry x="450" y="3050" width="121" height="55" as="geometry" />
        </mxCell>
        <mxCell id="3_G84Vbl57iLc2PhNEoy-107" style="edgeStyle=orthogonalEdgeStyle;rounded=0;orthogonalLoop=1;jettySize=auto;html=1;exitX=1;exitY=0.5;exitDx=0;exitDy=0;" edge="1" parent="WIyWlLk6GJQsqaUBKTNV-1" source="3_G84Vbl57iLc2PhNEoy-108">
          <mxGeometry relative="1" as="geometry">
            <mxPoint x="2140" y="2960" as="targetPoint" />
            <mxPoint x="189" y="3160" as="sourcePoint" />
          </mxGeometry>
        </mxCell>
        <mxCell id="3_G84Vbl57iLc2PhNEoy-108" value="Vui long nhap 1-4" style="shape=parallelogram;perimeter=parallelogramPerimeter;whiteSpace=wrap;html=1;fixedSize=1;" vertex="1" parent="WIyWlLk6GJQsqaUBKTNV-1">
          <mxGeometry x="69" y="3130" width="120" height="60" as="geometry" />
        </mxCell>
        <mxCell id="3_G84Vbl57iLc2PhNEoy-109" value="arr[k+1][i]=arr[k][i]k-=1" style="rounded=0;whiteSpace=wrap;html=1;" vertex="1" parent="WIyWlLk6GJQsqaUBKTNV-1">
          <mxGeometry x="910" y="2690" width="120" height="60" as="geometry" />
        </mxCell>
        <mxCell id="3_G84Vbl57iLc2PhNEoy-111" value="arr[f+1][i]=arr[f][i]f-=1" style="rounded=0;whiteSpace=wrap;html=1;" vertex="1" parent="WIyWlLk6GJQsqaUBKTNV-1">
          <mxGeometry x="900" y="2080" width="120" height="60" as="geometry" />
        </mxCell>
        <mxCell id="3_G84Vbl57iLc2PhNEoy-112" value="k&amp;gt;=0&amp;amp;&amp;amp;key&amp;lt;arr[i][k]" style="rhombus;whiteSpace=wrap;html=1;" vertex="1" parent="WIyWlLk6GJQsqaUBKTNV-1">
          <mxGeometry x="900" y="1880" width="130" height="80" as="geometry" />
        </mxCell>
        <mxCell id="3_G84Vbl57iLc2PhNEoy-113" value="&amp;nbsp;arr[i][k+1]=key;" style="rounded=0;whiteSpace=wrap;html=1;" vertex="1" parent="WIyWlLk6GJQsqaUBKTNV-1">
          <mxGeometry x="1205" y="1890" width="120" height="60" as="geometry" />
        </mxCell>
        <mxCell id="3_G84Vbl57iLc2PhNEoy-114" value="arr[k+1][i]=key" style="rounded=0;whiteSpace=wrap;html=1;" vertex="1" parent="WIyWlLk6GJQsqaUBKTNV-1">
          <mxGeometry x="1205" y="2510" width="120" height="60" as="geometry" />
        </mxCell>
        <mxCell id="3_G84Vbl57iLc2PhNEoy-115" value="k&amp;gt;=0&amp;amp;&amp;amp;key&amp;gt;arr[k][i]" style="rhombus;whiteSpace=wrap;html=1;" vertex="1" parent="WIyWlLk6GJQsqaUBKTNV-1">
          <mxGeometry x="900" y="2500" width="140" height="80" as="geometry" />
        </mxCell>
      </root>
    </mxGraphModel>
  </diagram>
</mxfile>
